<svg width="150" height="150" viewBox="0 0 150 150" fill="none" xmlns="http://www.w3.org/2000/svg">
<rect width="150" height="150" rx="20" fill="#27C267"/>
<path d="M30 37H120" stroke="white" stroke-width="2"/>
<path d="M51.7913 37.7402V43.0631L68.1693 63.945H75.5394V90.5591H68.1693V127" stroke="white" stroke-width="6"/>
<rect x="65.3031" y="62.3071" width="11.4646" height="29.4803" fill="white"/>
<path d="M97.6496 37.7402V43.0631L81.2716 63.945H73.9015V90.5591H81.2716V127" stroke="white" stroke-width="6"/>
<rect width="11.4646" height="29.4803" transform="matrix(-1 0 0 1 84.1378 61.8977)" fill="white"/>
<circle cx="75" cy="51" r="7" fill="white"/>
<rect x="33" y="25" width="5" height="25" fill="white"/>
<rect x="39" y="23" width="6" height="29" fill="white"/>
<rect width="6" height="25" transform="matrix(-1 0 0 1 117 26)" fill="white"/>
<rect width="5" height="29" transform="matrix(-1 0 0 1 110 24)" fill="white"/>
</svg>
