<svg width="150" height="150" viewBox="0 0 150 150" fill="none" xmlns="http://www.w3.org/2000/svg">
<rect width="150" height="150" rx="20" fill="#27C267"/>
<path d="M75 79H50.1549V67H39L37 62.5L75 40" stroke="white" stroke-width="3" stroke-linecap="round" stroke-linejoin="round"/>
<path d="M75 79H99.8451V67H111L113 62.5L75 40" stroke="white" stroke-width="3" stroke-linecap="round" stroke-linejoin="round"/>
<path d="M30 84H120" stroke="white" stroke-width="2"/>
<rect x="33" y="72" width="5" height="25" fill="white"/>
<rect x="39" y="70" width="6" height="29" fill="white"/>
<rect width="6" height="25" transform="matrix(-1 0 0 1 117 73)" fill="white"/>
<rect width="5" height="29" transform="matrix(-1 0 0 1 110 71)" fill="white"/>
<mask id="path-9-inside-1" fill="white">
<rect x="49" y="88" width="52" height="18" rx="2"/>
</mask>
<rect x="49" y="88" width="52" height="18" rx="2" stroke="white" stroke-width="6" mask="url(#path-9-inside-1)"/>
</svg>
