<svg width="150" height="150" viewBox="0 0 150 150" fill="none" xmlns="http://www.w3.org/2000/svg">
<rect width="150" height="150" rx="20" fill="#27C267"/>
<path d="M114.607 77C114.607 98.5252 97.0245 116 75.3037 116C53.5829 116 36 98.5252 36 77C36 55.4748 53.5829 38 75.3037 38C97.0245 38 114.607 55.4748 114.607 77Z" stroke="white" stroke-width="4"/>
<path d="M100.207 65.1555C100.45 66.1273 108.205 66.5728 112.052 66.674L114.178 70.6221L113.57 89.1481L105.37 102.207L103.548 100.385V97.9555L101.726 95.8295L102.333 93.0962L100.815 91.8814V90.6666L102.333 88.237L99.6 83.6814L99.9037 80.3407L97.7778 80.037L96.563 79.1258H95.0444L94.1333 80.037H89.8815L86.237 76.3925V73.0518C87.2089 71.351 86.642 71.1283 86.237 71.2295V70.0147C86.237 69.7718 88.6667 68.0913 89.8815 67.2814V65.1555L92.0074 64.2444C92.8173 64.3456 94.5585 64.4873 95.0444 64.2444C95.5304 64.0014 98.6889 63.5357 100.207 63.3333C100.106 63.5357 99.9645 64.1836 100.207 65.1555Z" fill="white"/>
<path d="M57.9926 47.5407L53.4371 46.3259H51.6148C48.5778 48.8568 42.3822 55.0118 41.8963 59.3852C41.4104 63.7585 41.0864 63.637 40.9852 63.0296V64.5481L42.5037 65.1555V68.1926L43.7185 70.3185H45.2371L43.7185 67.8889V65.7629H44.6296L45.2371 68.1926L47.0593 70.9259L46.4519 71.5333L47.9704 74.2666L51.0074 75.1777L50.7037 74.2666H52.2222V75.4814L55.2593 75.7852L57.0815 78.8222L60.1185 79.1259V81.2518L57.9926 82.7703V85.8074L64.3704 92.4889V98.5629L65.2815 99.474L64.6741 102.207L65.8889 103.726L65.5852 106.459L67.4074 109.8L69.5333 111.926H72.2667V110.711L70.4445 109.496L70.7482 107.37L69.5333 106.763L70.4445 104.941H69.5333V104.03H70.7482L73.1778 102.815L76.2148 98.5629L75.3037 95.8296L76.8222 94.6148H78.6445L79.8593 93.7037L80.7704 88.8444L81.9852 87.3259L82.2889 85.8074L80.7704 85.2L79.5556 83.9851H76.2148L73.7852 82.7703V80.9481L72.8741 79.4296L70.4445 79.1259L68.3185 76.3926L67.7111 77.3037H65.2815V76.3926L62.5482 75.7852L60.4222 78.2148L57.3852 77.3037V74.2666L55.2593 73.6592L56.4741 72.1407L55.8667 71.5333L53.1333 73.0518L50.7037 72.1407V70.9259L52.2222 68.1926L54.0445 66.9777H58.9037L58.6 68.4963L60.4222 68.8V66.674L63.763 63.9407V63.0296L65.2815 61.5111L69.5333 57.8666H70.7482L71.3556 57.2592L70.4445 56.0444H71.3556H74.6963H76.2148V54.2222L75 53.6148L74.6963 51.7926L72.2667 52.4V50.8814L69.5333 50.274L68.6222 51.1852V53.6148L66.4963 54.2222L65.8889 56.0444H65.2815V53.9185L61.9408 53.0074L61.6371 51.4889L65.8889 49.0592L67.1037 50.5777L68.3185 48.7555H69.5333L70.4445 47.5407L73.1778 47.237L73.7852 48.1481L71.3556 49.6666L75 50.5777L75.3037 49.0592H76.8222L77.4296 48.1481H76.2148V46.3259L72.5704 44.8074L70.4445 45.4148L68.9259 46.3259V47.5407L67.7111 47.237V46.3259L68.6222 45.4148H65.8889L65.2815 46.3259H65.8889V47.5407H64.3704V48.1481L57.9926 48.7555V47.5407Z" fill="white"/>
<path d="M97.4741 50.8815L100.511 48.7556L101.422 47.8445L102.941 49.6667L102.637 53.3111L101.422 53.9186V54.526H103.548L105.37 52.4L110.23 59.6889L105.978 61.5111V63.3334L104.459 61.5111V60.2963L102.333 58.4741H100.815L101.422 59.9926L103.548 61.5111L102.941 63.3334H101.119L100.511 62.4223H102.333V61.5111L99.2963 60.2963V59.0815L98.0815 60.2963L96.8667 59.6889L95.0444 63.3334H92.3111L90.4889 62.4223V60.2963L92.6148 59.6889H94.7407V58.7778H94.1333L94.7407 56.6519H96.2593L98.0815 54.526H100.511V53.0074H98.9926L98.6889 52.0963H97.4741V50.8815Z" fill="white"/>
</svg>
