<svg width="117" height="112" viewBox="0 0 117 112" fill="none" xmlns="http://www.w3.org/2000/svg">
<rect width="116.28" height="112" rx="15" fill="#2AAA84"/>
<path d="M75.0455 51.5187C75.0182 46.9595 77.2834 43.5185 81.8684 40.9842C79.303 37.6426 75.4276 35.804 70.3104 35.4438C65.4661 35.0959 60.1715 38.0152 58.2338 38.0152C56.1869 38.0152 51.4927 35.568 47.8083 35.568C40.1939 35.6798 32.1019 41.0961 32.1019 52.1149C32.1019 55.3697 32.7569 58.7321 34.0669 62.2021C35.8136 66.7612 42.118 77.9416 48.6953 77.7553C52.1341 77.6807 54.563 75.5316 59.0389 75.5316C63.3782 75.5316 65.6298 77.7553 69.4643 77.7553C76.0962 77.6683 81.8002 67.5066 83.465 62.9351C74.5679 59.1213 75.0455 51.7547 75.0455 51.5187ZM67.3219 31.1207C71.0472 27.0957 70.7061 23.4311 70.5969 22.1143C67.3083 22.2882 63.5011 24.1516 61.3314 26.4498C58.9433 28.9094 57.5378 31.953 57.838 35.3816C61.3996 35.6301 64.6473 33.9655 67.3219 31.1207Z" fill="white"/>
</svg>
